<svg viewBox="0 0 200 200" xmlns="http://www.w3.org/2000/svg">
  <defs>
    <linearGradient id="capricornGrad" x1="0%" y1="0%" x2="100%" y2="100%">
      <stop offset="0%" style="stop-color:#dc2626;stop-opacity:1" />
      <stop offset="100%" style="stop-color:#ef4444;stop-opacity:1" />
    </linearGradient>
  </defs>
  
  <!-- Background circle -->
  <circle cx="100" cy="100" r="90" fill="url(#capricornGrad)" stroke="#dc2626" stroke-width="4"/>
  
  <!-- Sun symbol -->
  <circle cx="100" cy="80" r="20" fill="white" opacity="0.9"/>
  <circle cx="100" cy="80" r="12" fill="#dc2626"/>
  
  <!-- Sun rays -->
  <line x1="100" y1="50" x2="100" y2="40" stroke="white" stroke-width="3"/>
  <line x1="100" y1="110" x2="100" y2="120" stroke="white" stroke-width="3"/>
  <line x1="70" y1="80" x2="60" y2="80" stroke="white" stroke-width="3"/>
  <line x1="130" y1="80" x2="140" y2="80" stroke="white" stroke-width="3"/>
  <line x1="82" y1="62" x2="76" y2="56" stroke="white" stroke-width="2"/>
  <line x1="118" y1="62" x2="124" y2="56" stroke="white" stroke-width="2"/>
  <line x1="82" y1="98" x2="76" y2="104" stroke="white" stroke-width="2"/>
  <line x1="118" y1="98" x2="124" y2="104" stroke="white" stroke-width="2"/>
  
  <!-- Technical elements -->
  <rect x="80" y="130" width="40" height="20" fill="white" opacity="0.8" rx="3"/>
  <circle cx="85" cy="140" r="3" fill="#dc2626"/>
  <circle cx="95" cy="140" r="3" fill="#dc2626"/>
  <circle cx="105" cy="140" r="3" fill="#dc2626"/>
  <circle cx="115" cy="140" r="3" fill="#dc2626"/>
  
  <!-- Text -->
  <text x="100" y="175" text-anchor="middle" font-family="Arial, sans-serif" font-size="12" font-weight="bold" fill="white">CAPRICORN</text>
  <text x="100" y="190" text-anchor="middle" font-family="Arial, sans-serif" font-size="9" fill="white">TVET</text>
</svg>