<svg viewBox="0 0 200 200" xmlns="http://www.w3.org/2000/svg">
  <defs>
    <linearGradient id="cjGrad" x1="0%" y1="0%" x2="100%" y2="100%">
      <stop offset="0%" style="stop-color:#1e40af;stop-opacity:1" />
      <stop offset="100%" style="stop-color:#3b82f6;stop-opacity:1" />
    </linearGradient>
  </defs>
  
  <!-- Background circle -->
  <circle cx="100" cy="100" r="90" fill="url(#cjGrad)" stroke="#1e40af" stroke-width="4"/>
  
  <!-- Building/Tower representation -->
  <rect x="70" y="40" width="60" height="120" fill="white" opacity="0.9"/>
  <rect x="75" y="45" width="50" height="110" fill="#1e40af"/>
  
  <!-- Windows -->
  <rect x="80" y="55" width="8" height="8" fill="white"/>
  <rect x="92" y="55" width="8" height="8" fill="white"/>
  <rect x="104" y="55" width="8" height="8" fill="white"/>
  <rect x="116" y="55" width="8" height="8" fill="white"/>
  
  <rect x="80" y="70" width="8" height="8" fill="white"/>
  <rect x="92" y="70" width="8" height="8" fill="white"/>
  <rect x="104" y="70" width="8" height="8" fill="white"/>
  <rect x="116" y="70" width="8" height="8" fill="white"/>
  
  <rect x="80" y="85" width="8" height="8" fill="white"/>
  <rect x="92" y="85" width="8" height="8" fill="white"/>
  <rect x="104" y="85" width="8" height="8" fill="white"/>
  <rect x="116" y="85" width="8" height="8" fill="white"/>
  
  <!-- Text -->
  <text x="100" y="180" text-anchor="middle" font-family="Arial, sans-serif" font-size="14" font-weight="bold" fill="white">CJC</text>
  <text x="100" y="195" text-anchor="middle" font-family="Arial, sans-serif" font-size="8" fill="white">TVET</text>
</svg>